<svg xmlns="http://www.w3.org/2000/svg" viewBox="0 0 1200 480" width="1200" height="480" role="img" aria-labelledby="t d">
<title id="t">Tech stack</title>
<desc id="d">HTML, CSS, JavaScript, Bootstrap, Tailwind, WordPress, Elementor Pro, ACF, Fluent Forms, WP Rocket, RankMath, Git, GitHub and Netlify.</desc>
<style>
.sans{font-family:Inter,'Segoe UI',Roboto,'Helvetica Neue',Arial,sans-serif}
.mono{font-family:ui-monospace,SFMono-Regular,Menlo,Consolas,'Liberation Mono',monospace}
.fade{animation:fadeUp .8s cubic-bezier(.2,.7,.2,1) both}
@keyframes fadeUp{from{opacity:0;transform:translateY(12px)}to{opacity:1;transform:none}}
@media (prefers-reduced-motion:reduce){.fade{animation:none}}
.k{fill:#60a5fa}.v{fill:#e6ecff}.s{fill:#7ee0c3}.c{fill:#5b6a91}.f{fill:#93c5fd}.p{fill:#8a96b8}.n{fill:#fbbf77}</style>
<defs>
<pattern id="dots" width="22" height="22" patternUnits="userSpaceOnUse"><circle cx="2" cy="2" r="1" fill="#ffffff" fill-opacity=".05"/></pattern>
<linearGradient id="hair" x1="0" y1="0" x2="1" y2="1"><stop offset="0" stop-color="#3b82f6"/><stop offset=".5" stop-color="#1B4FBD" stop-opacity=".25"/><stop offset="1" stop-color="#22d3ee"/></linearGradient>
<linearGradient id="grad" x1="0" y1="0" x2="1" y2="0" spreadMethod="reflect"><stop offset="0" stop-color="#bfdbfe"/><stop offset=".4" stop-color="#60a5fa"/><stop offset=".8" stop-color="#3b82f6"/><stop offset="1" stop-color="#22d3ee"/><animateTransform attributeName="gradientTransform" type="translate" values="0 0;0.6 0;0 0" dur="7s" repeatCount="indefinite"/></linearGradient>
<radialGradient id="glowB"><stop offset="0" stop-color="#1B4FBD" stop-opacity=".45"/><stop offset="1" stop-color="#1B4FBD" stop-opacity="0"/></radialGradient>
<radialGradient id="coreGlow"><stop offset="0" stop-color="#3b82f6" stop-opacity=".55"/><stop offset="1" stop-color="#3b82f6" stop-opacity="0"/></radialGradient>
</defs>

<rect x=".75" y=".75" width="1198.5" height="478.5" rx="22" fill="#0b1020"/>
<rect x=".75" y=".75" width="1198.5" height="478.5" rx="22" fill="url(#dots)"/>
<ellipse cx="330" cy="240" rx="330" ry="230" fill="url(#glowB)"/>
<text x="48" y="58" class="mono" font-size="12" letter-spacing="2" fill="#6f7fa8">// THE STACK</text>
<ellipse cx="330" cy="240" rx="120" ry="62" transform="rotate(-22 330 240)" fill="none" stroke="#3b82f6" stroke-opacity=".38" stroke-dasharray="3 7"/><ellipse cx="330" cy="240" rx="185" ry="90" transform="rotate(24 330 240)" fill="none" stroke="#3b82f6" stroke-opacity=".38" stroke-dasharray="3 7"/><ellipse cx="330" cy="240" rx="260" ry="130" transform="rotate(-10 330 240)" fill="none" stroke="#3b82f6" stroke-opacity=".38" stroke-dasharray="3 7"/>
<circle cx="330" cy="240" r="58" fill="url(#coreGlow)"><animate attributeName="r" values="52;66;52" dur="3.5s" repeatCount="indefinite"/></circle>
<circle cx="330" cy="240" r="26" fill="#0d1838" stroke="#3b82f6" stroke-width="1.5"/>
<text x="330" y="245" class="mono" font-size="15" font-weight="700" fill="#93c5fd" text-anchor="middle">&lt;/&gt;</text>
<g transform="translate(441.26 195.05)"><animateMotion dur="16s" repeatCount="indefinite" path="M0,0 a120,62 -22 0 1 -222.52,89.91 a120,62 -22 0 1 222.52,-89.91"/><circle r="17" fill="#111a30" stroke="#F7DF1E" stroke-opacity=".55"/><g transform="translate(-9 -9) scale(.75)"><path d="M0 0h24v24H0V0zm22.034 18.276c-.175-1.095-.888-2.015-3.003-2.873-.736-.345-1.554-.585-1.797-1.14-.091-.33-.105-.51-.046-.705.15-.646.915-.84 1.515-.66.39.12.75.42.976.9 1.034-.676 1.034-.676 1.755-1.125-.27-.42-.404-.601-.586-.78-.63-.705-1.469-1.065-2.834-1.034l-.705.089c-.676.165-1.32.525-1.71 1.005-1.14 1.291-.811 3.541.569 4.471 1.365 1.02 3.361 1.244 3.616 2.205.24 1.17-.87 1.545-1.966 1.41-.811-.18-1.26-.586-1.755-1.336l-1.83 1.051c.21.48.45.689.81 1.109 1.74 1.756 6.09 1.666 6.871-1.004.029-.09.24-.705.074-1.65l.046.067zm-8.983-7.245h-2.248c0 1.938-.009 3.864-.009 5.805 0 1.232.063 2.363-.138 2.711-.33.689-1.18.601-1.566.48-.396-.196-.597-.466-.83-.855-.063-.105-.11-.196-.127-.196l-1.825 1.125c.305.63.75 1.172 1.324 1.517.855.51 2.004.675 3.207.405.783-.226 1.458-.691 1.811-1.411.51-.93.402-2.07.397-3.346.012-2.054 0-4.109 0-6.179l.004-.056z" fill="#F7DF1E"/></g></g>
<g transform="translate(294.48 312.26)"><animateMotion dur="16s" repeatCount="indefinite" path="M0,0 a120,62 -22 0 1 71.03,-144.52 a120,62 -22 0 1 -71.03,144.52"/><circle r="17" fill="#111a30" stroke="#E34F26" stroke-opacity=".55"/><g transform="translate(-9 -9) scale(.75)"><path d="M1.5 0h21l-1.91 21.563L11.977 24l-8.564-2.438L1.5 0zm7.031 9.75l-.232-2.718 10.059.003.23-2.622L5.412 4.41l.698 8.01h9.126l-.326 3.426-2.91.804-2.955-.81-.188-2.11H6.248l.33 4.171L12 19.351l5.379-1.443.744-8.157H8.531z" fill="#E34F26"/></g></g>
<g transform="translate(254.26 212.69)"><animateMotion dur="16s" repeatCount="indefinite" path="M0,0 a120,62 -22 0 1 151.49,54.61 a120,62 -22 0 1 -151.49,-54.61"/><circle r="17" fill="#111a30" stroke="#33a9dc" stroke-opacity=".55"/><g transform="translate(-9 -9) scale(.75)"><path d="M0 0v20.16A3.84 3.84 0 0 0 3.84 24h16.32A3.84 3.84 0 0 0 24 20.16V3.84A3.84 3.84 0 0 0 20.16 0Zm14.256 13.08c1.56 0 2.28 1.08 2.304 2.64h-1.608c.024-.288-.048-.6-.144-.84-.096-.192-.288-.264-.552-.264-.456 0-.696.264-.696.84-.024.576.288.888.768 1.08.72.288 1.608.744 1.92 1.296q.432.648.432 1.656c0 1.608-.912 2.592-2.496 2.592-1.656 0-2.4-1.032-2.424-2.688h1.68c0 .792.264 1.176.792 1.176.264 0 .456-.072.552-.24.192-.312.24-1.176-.048-1.512-.312-.408-.912-.6-1.32-.816q-.828-.396-1.224-.936c-.24-.36-.36-.888-.36-1.536 0-1.44.936-2.472 2.424-2.448m5.4 0c1.584 0 2.304 1.08 2.328 2.64h-1.608c0-.288-.048-.6-.168-.84-.096-.192-.264-.264-.528-.264-.48 0-.72.264-.72.84s.288.888.792 1.08c.696.288 1.608.744 1.92 1.296.264.432.408.984.408 1.656.024 1.608-.888 2.592-2.472 2.592-1.68 0-2.424-1.056-2.448-2.688h1.68c0 .744.264 1.176.792 1.176.264 0 .456-.072.552-.24.216-.312.264-1.176-.048-1.512-.288-.408-.888-.6-1.32-.816-.552-.264-.96-.576-1.2-.936s-.36-.888-.36-1.536c-.024-1.44.912-2.472 2.4-2.448m-11.031.018c.711-.006 1.419.198 1.839.63.432.432.672 1.128.648 1.992H9.336c.024-.456-.096-.792-.432-.96-.312-.144-.768-.048-.888.24-.12.264-.192.576-.168.864v3.504c0 .744.264 1.128.768 1.128a.65.65 0 0 0 .552-.264c.168-.24.192-.552.168-.84h1.776c.096 1.632-.984 2.712-2.568 2.688-1.536 0-2.496-.864-2.472-2.472v-4.032c0-.816.24-1.44.696-1.848.432-.408 1.146-.624 1.857-.63" fill="#33a9dc"/></g></g>
<g transform="translate(458.06 346.27)"><animateMotion dur="26s" repeatCount="indefinite" path="M0,0 a185,90 24 0 1 -256.12,-212.55 a185,90 24 0 1 256.12,212.55"/><circle r="17" fill="#111a30" stroke="#4fb3e0" stroke-opacity=".55"/><g transform="translate(-9 -9) scale(.75)"><path d="M21.469 6.825c.84 1.537 1.318 3.3 1.318 5.175 0 3.979-2.156 7.456-5.363 9.325l3.295-9.527c.615-1.54.82-2.771.82-3.864 0-.405-.026-.78-.07-1.11m-7.981.105c.647-.03 1.232-.105 1.232-.105.582-.075.514-.93-.067-.899 0 0-1.755.135-2.88.135-1.064 0-2.85-.15-2.85-.15-.585-.03-.661.855-.075.885 0 0 .54.061 1.125.09l1.68 4.605-2.37 7.08L5.354 6.9c.649-.03 1.234-.1 1.234-.1.585-.075.516-.93-.065-.896 0 0-1.746.138-2.874.138-.2 0-.438-.008-.69-.015C4.911 3.15 8.235 1.215 12 1.215c2.809 0 5.365 1.072 7.286 2.833-.046-.003-.091-.009-.141-.009-1.06 0-1.812.923-1.812 1.914 0 .89.513 1.643 1.06 2.531.411.72.89 1.643.89 2.977 0 .915-.354 1.994-.821 3.479l-1.075 3.585-3.9-11.61.001.014zM12 22.784c-1.059 0-2.081-.153-3.048-.437l3.237-9.406 3.315 9.087c.024.053.05.101.078.149-1.12.393-2.325.609-3.582.609M1.211 12c0-1.564.336-3.05.935-4.39L7.29 21.709C3.694 19.96 1.212 16.271 1.211 12M12 0C5.385 0 0 5.385 0 12s5.385 12 12 12 12-5.385 12-12S18.615 0 12 0" fill="#4fb3e0"/></g><circle r="30" fill="none" stroke="#3b82f6" stroke-opacity=".3" stroke-dasharray="2 5"/><g transform="translate(30 0)"><animateMotion dur="4.5s" repeatCount="indefinite" path="M0,0 a30 30 0 0 1 -60 0 a30 30 0 0 1 60 0"/><circle r="10" fill="#111a30" stroke="#e0457b" stroke-opacity=".6"/><g transform="translate(-6 -6) scale(.5)"><path d="M12 0C5.372 0 0 5.372 0 12c0 6.626 5.372 12 12 12s12-5.372 12-12c0-6.626-5.372-12-12-12ZM9 17H7V7H9Zm8 0H11V15h6Zm0-4H11V11h6Zm0-4H11V7h6Z" fill="#e0457b"/></g></g></g>
<g transform="translate(165.33 215.94)"><animateMotion dur="26s" repeatCount="indefinite" path="M0,0 a185,90 24 0 1 329.33,48.11 a185,90 24 0 1 -329.33,-48.11"/><circle r="17" fill="#111a30" stroke="#9b7bd8" stroke-opacity=".55"/><g transform="translate(-9 -9) scale(.75)"><path d="M11.77 11.24H9.956V8.202h2.152c1.17 0 1.834.522 1.834 1.466 0 1.008-.773 1.572-2.174 1.572zm.324 1.206H9.957v3.348h2.231c1.459 0 2.232-.585 2.232-1.685s-.795-1.663-2.326-1.663zM24 11.39v1.218c-1.128.108-1.817.944-2.226 2.268-.407 1.319-.463 2.937-.42 4.186.045 1.3-.968 2.5-2.337 2.5H4.985c-1.37 0-2.383-1.2-2.337-2.5.043-1.249-.013-2.867-.42-4.186-.41-1.324-1.1-2.16-2.228-2.268V11.39c1.128-.108 1.819-.944 2.227-2.268.408-1.319.464-2.937.42-4.186-.045-1.3.968-2.5 2.338-2.5h14.032c1.37 0 2.382 1.2 2.337 2.5-.043 1.249.013 2.867.42 4.186.409 1.324 1.098 2.16 2.226 2.268zm-7.927 2.817c0-1.354-.953-2.333-2.368-2.488v-.057c1.04-.169 1.856-1.135 1.856-2.213 0-1.537-1.213-2.538-3.062-2.538h-4.16v10.172h4.181c2.218 0 3.553-1.086 3.553-2.876z" fill="#9b7bd8"/></g></g>
<g transform="translate(366.61 157.78)"><animateMotion dur="26s" repeatCount="indefinite" path="M0,0 a185,90 24 0 1 -73.21,164.44 a185,90 24 0 1 73.21,-164.44"/><circle r="17" fill="#111a30" stroke="#06B6D4" stroke-opacity=".55"/><g transform="translate(-9 -9) scale(.75)"><path d="M12.001,4.8c-3.2,0-5.2,1.6-6,4.8c1.2-1.6,2.6-2.2,4.2-1.8c0.913,0.228,1.565,0.89,2.288,1.624 C13.666,10.618,15.027,12,18.001,12c3.2,0,5.2-1.6,6-4.8c-1.2,1.6-2.6,2.2-4.2,1.8c-0.913-0.228-1.565-0.89-2.288-1.624 C16.337,6.182,14.976,4.8,12.001,4.8z M6.001,12c-3.2,0-5.2,1.6-6,4.8c1.2-1.6,2.6-2.2,4.2-1.8c0.913,0.228,1.565,0.89,2.288,1.624 c1.177,1.194,2.538,2.576,5.512,2.576c3.2,0,5.2-1.6,6-4.8c-1.2,1.6-2.6,2.2-4.2,1.8c-0.913-0.228-1.565-0.89-2.288-1.624 C10.337,13.382,8.976,12,6.001,12z" fill="#06B6D4"/></g></g>
<g transform="translate(201.63 370.77)"><animateMotion dur="38s" repeatCount="indefinite" path="M0,0 a260,130 -10 0 1 256.75,-261.54 a260,130 -10 0 1 -256.75,261.54"/><circle r="17" fill="#111a30" stroke="#F05032" stroke-opacity=".55"/><g transform="translate(-9 -9) scale(.75)"><path d="M13.09 23.549a1.54 1.54 0 0 1-2.18 0L.451 13.089a1.54 1.54 0 0 1 0-2.179l7.191-7.19 2.733 2.733a1.85 1.85 0 0 0 .964 2.326v6.66a1.849 1.849 0 1 0 1.54 0V8.957l2.508 2.508a1.85 1.85 0 1 0 1.09-1.09l-2.634-2.634a1.85 1.85 0 0 0-2.378-2.377L8.73 2.63 10.91.451a1.54 1.54 0 0 1 2.179 0l10.459 10.46a1.54 1.54 0 0 1 0 2.179z" fill="#F05032"/></g></g>
<g transform="translate(76.83 250.47)"><animateMotion dur="38s" repeatCount="indefinite" path="M0,0 a260,130 -10 0 1 506.34,-20.95 a260,130 -10 0 1 -506.34,20.95"/><circle r="17" fill="#111a30" stroke="#e6edf3" stroke-opacity=".55"/><g transform="translate(-9 -9) scale(.75)"><path d="M12 .297c-6.63 0-12 5.373-12 12 0 5.303 3.438 9.8 8.205 11.385.6.113.82-.258.82-.577 0-.285-.01-1.04-.015-2.04-3.338.724-4.042-1.61-4.042-1.61C4.422 18.07 3.633 17.7 3.633 17.7c-1.087-.744.084-.729.084-.729 1.205.084 1.838 1.236 1.838 1.236 1.07 1.835 2.809 1.305 3.495.998.108-.776.417-1.305.76-1.605-2.665-.3-5.466-1.332-5.466-5.93 0-1.31.465-2.38 1.235-3.22-.135-.303-.54-1.523.105-3.176 0 0 1.005-.322 3.3 1.23.96-.267 1.98-.399 3-.405 1.02.006 2.04.138 3 .405 2.28-1.552 3.285-1.23 3.285-1.23.645 1.653.24 2.873.12 3.176.765.84 1.23 1.91 1.23 3.22 0 4.61-2.805 5.625-5.475 5.92.42.36.81 1.096.81 2.22 0 1.606-.015 2.896-.015 3.286 0 .315.21.69.825.57C20.565 22.092 24 17.592 24 12.297c0-6.627-5.373-12-12-12" fill="#e6edf3"/></g></g>
<g transform="translate(458.37 109.23)"><animateMotion dur="38s" repeatCount="indefinite" path="M0,0 a260,130 -10 0 1 -256.75,261.54 a260,130 -10 0 1 256.75,-261.54"/><circle r="17" fill="#111a30" stroke="#00C7B7" stroke-opacity=".55"/><g transform="translate(-9 -9) scale(.75)"><path d="M6.49 19.04h-.23L5.13 17.9v-.23l1.73-1.71h1.2l.15.15v1.2L6.5 19.04ZM5.13 6.31V6.1l1.13-1.13h.23L8.2 6.68v1.2l-.15.15h-1.2L5.13 6.31Zm9.96 9.09h-1.65l-.14-.13v-3.83c0-.68-.27-1.2-1.1-1.23-.42 0-.9 0-1.43.02l-.07.08v4.96l-.14.14H8.9l-.13-.14V8.73l.13-.14h3.7a2.6 2.6 0 0 1 2.61 2.6v4.08l-.13.14Zm-8.37-2.44H.14L0 12.82v-1.64l.14-.14h6.58l.14.14v1.64l-.14.14Zm17.14 0h-6.58l-.14-.14v-1.64l.14-.14h6.58l.14.14v1.64l-.14.14ZM11.05 6.55V1.64l.14-.14h1.65l.14.14v4.9l-.14.14h-1.65l-.14-.13Zm0 15.81v-4.9l.14-.14h1.65l.14.13v4.91l-.14.14h-1.65l-.14-.14Z" fill="#00C7B7"/></g></g>

<path d="M610 70v340" stroke="#1e2a4a" stroke-dasharray="2 6"/>
<text x="650" y="79" class="mono" font-size="11.5" letter-spacing="2" fill="#6f7fa8">FRONTEND</text>
<g><rect x="650" y="89" width="61" height="32" rx="16" fill="#1B4FBD" fill-opacity=".14" stroke="#3b82f6" stroke-opacity=".5"><animate attributeName="stroke-opacity" values=".35;.35;1;.35;.35" keyTimes="0;0;0.03;0.05;1" dur="11.1s" repeatCount="indefinite"/><animate attributeName="fill-opacity" values=".1;.1;.4;.1;.1" keyTimes="0;0;0.03;0.05;1" dur="11.1s" repeatCount="indefinite"/></rect><text x="680.5" y="110" class="sans" font-size="13.5" font-weight="500" fill="#d6e4ff" text-anchor="middle">HTML</text></g>
<g><rect x="721" y="89" width="53" height="32" rx="16" fill="#1B4FBD" fill-opacity=".14" stroke="#3b82f6" stroke-opacity=".5"><animate attributeName="stroke-opacity" values=".35;.35;1;.35;.35" keyTimes="0;0.05;0.08;0.11;1" dur="11.1s" repeatCount="indefinite"/><animate attributeName="fill-opacity" values=".1;.1;.4;.1;.1" keyTimes="0;0.05;0.08;0.11;1" dur="11.1s" repeatCount="indefinite"/></rect><text x="747.5" y="110" class="sans" font-size="13.5" font-weight="500" fill="#d6e4ff" text-anchor="middle">CSS</text></g>
<g><rect x="784" y="89" width="108" height="32" rx="16" fill="#1B4FBD" fill-opacity=".14" stroke="#3b82f6" stroke-opacity=".5"><animate attributeName="stroke-opacity" values=".35;.35;1;.35;.35" keyTimes="0;0.11;0.14;0.16;1" dur="11.1s" repeatCount="indefinite"/><animate attributeName="fill-opacity" values=".1;.1;.4;.1;.1" keyTimes="0;0.11;0.14;0.16;1" dur="11.1s" repeatCount="indefinite"/></rect><text x="838" y="110" class="sans" font-size="13.5" font-weight="500" fill="#d6e4ff" text-anchor="middle">JavaScript</text></g>
<g><rect x="902" y="89" width="100" height="32" rx="16" fill="#1B4FBD" fill-opacity=".14" stroke="#3b82f6" stroke-opacity=".5"><animate attributeName="stroke-opacity" values=".35;.35;1;.35;.35" keyTimes="0;0.16;0.19;0.22;1" dur="11.1s" repeatCount="indefinite"/><animate attributeName="fill-opacity" values=".1;.1;.4;.1;.1" keyTimes="0;0.16;0.19;0.22;1" dur="11.1s" repeatCount="indefinite"/></rect><text x="952" y="110" class="sans" font-size="13.5" font-weight="500" fill="#d6e4ff" text-anchor="middle">Bootstrap</text></g>
<g><rect x="1012" y="89" width="124" height="32" rx="16" fill="#1B4FBD" fill-opacity=".14" stroke="#3b82f6" stroke-opacity=".5"><animate attributeName="stroke-opacity" values=".35;.35;1;.35;.35" keyTimes="0;0.22;0.24;0.27;1" dur="11.1s" repeatCount="indefinite"/><animate attributeName="fill-opacity" values=".1;.1;.4;.1;.1" keyTimes="0;0.22;0.24;0.27;1" dur="11.1s" repeatCount="indefinite"/></rect><text x="1074" y="110" class="sans" font-size="13.5" font-weight="500" fill="#d6e4ff" text-anchor="middle">Tailwind CSS</text></g>
<text x="650" y="161" class="mono" font-size="11.5" letter-spacing="2" fill="#6f7fa8">WORDPRESS</text>
<g><rect x="650" y="171" width="100" height="32" rx="16" fill="#1B4FBD" fill-opacity=".14" stroke="#3b82f6" stroke-opacity=".5"><animate attributeName="stroke-opacity" values=".35;.35;1;.35;.35" keyTimes="0;0.27;0.3;0.32;1" dur="11.1s" repeatCount="indefinite"/><animate attributeName="fill-opacity" values=".1;.1;.4;.1;.1" keyTimes="0;0.27;0.3;0.32;1" dur="11.1s" repeatCount="indefinite"/></rect><text x="700" y="192" class="sans" font-size="13.5" font-weight="500" fill="#d6e4ff" text-anchor="middle">WordPress</text></g>
<g><rect x="760" y="171" width="131" height="32" rx="16" fill="#1B4FBD" fill-opacity=".14" stroke="#3b82f6" stroke-opacity=".5"><animate attributeName="stroke-opacity" values=".35;.35;1;.35;.35" keyTimes="0;0.32;0.35;0.38;1" dur="11.1s" repeatCount="indefinite"/><animate attributeName="fill-opacity" values=".1;.1;.4;.1;.1" keyTimes="0;0.32;0.35;0.38;1" dur="11.1s" repeatCount="indefinite"/></rect><text x="825.5" y="192" class="sans" font-size="13.5" font-weight="500" fill="#d6e4ff" text-anchor="middle">Elementor Pro</text></g>
<g><rect x="901" y="171" width="53" height="32" rx="16" fill="#1B4FBD" fill-opacity=".14" stroke="#3b82f6" stroke-opacity=".5"><animate attributeName="stroke-opacity" values=".35;.35;1;.35;.35" keyTimes="0;0.38;0.41;0.43;1" dur="11.1s" repeatCount="indefinite"/><animate attributeName="fill-opacity" values=".1;.1;.4;.1;.1" keyTimes="0;0.38;0.41;0.43;1" dur="11.1s" repeatCount="indefinite"/></rect><text x="927.5" y="192" class="sans" font-size="13.5" font-weight="500" fill="#d6e4ff" text-anchor="middle">ACF</text></g>
<g><rect x="964" y="171" width="124" height="32" rx="16" fill="#1B4FBD" fill-opacity=".14" stroke="#3b82f6" stroke-opacity=".5"><animate attributeName="stroke-opacity" values=".35;.35;1;.35;.35" keyTimes="0;0.43;0.46;0.49;1" dur="11.1s" repeatCount="indefinite"/><animate attributeName="fill-opacity" values=".1;.1;.4;.1;.1" keyTimes="0;0.43;0.46;0.49;1" dur="11.1s" repeatCount="indefinite"/></rect><text x="1026" y="192" class="sans" font-size="13.5" font-weight="500" fill="#d6e4ff" text-anchor="middle">Fluent Forms</text></g>
<g><rect x="650" y="213" width="131" height="32" rx="16" fill="#1B4FBD" fill-opacity=".14" stroke="#3b82f6" stroke-opacity=".5"><animate attributeName="stroke-opacity" values=".35;.35;1;.35;.35" keyTimes="0;0.49;0.51;0.54;1" dur="11.1s" repeatCount="indefinite"/><animate attributeName="fill-opacity" values=".1;.1;.4;.1;.1" keyTimes="0;0.49;0.51;0.54;1" dur="11.1s" repeatCount="indefinite"/></rect><text x="715.5" y="234" class="sans" font-size="13.5" font-weight="500" fill="#d6e4ff" text-anchor="middle">Theme Builder</text></g>
<text x="650" y="285" class="mono" font-size="11.5" letter-spacing="2" fill="#6f7fa8">PERFORMANCE &amp; SEO</text>
<g><rect x="650" y="295" width="100" height="32" rx="16" fill="#1B4FBD" fill-opacity=".14" stroke="#3b82f6" stroke-opacity=".5"><animate attributeName="stroke-opacity" values=".35;.35;1;.35;.35" keyTimes="0;0.54;0.57;0.59;1" dur="11.1s" repeatCount="indefinite"/><animate attributeName="fill-opacity" values=".1;.1;.4;.1;.1" keyTimes="0;0.54;0.57;0.59;1" dur="11.1s" repeatCount="indefinite"/></rect><text x="700" y="316" class="sans" font-size="13.5" font-weight="500" fill="#d6e4ff" text-anchor="middle">WP Rocket</text></g>
<g><rect x="760" y="295" width="92" height="32" rx="16" fill="#1B4FBD" fill-opacity=".14" stroke="#3b82f6" stroke-opacity=".5"><animate attributeName="stroke-opacity" values=".35;.35;1;.35;.35" keyTimes="0;0.59;0.62;0.65;1" dur="11.1s" repeatCount="indefinite"/><animate attributeName="fill-opacity" values=".1;.1;.4;.1;.1" keyTimes="0;0.59;0.62;0.65;1" dur="11.1s" repeatCount="indefinite"/></rect><text x="806" y="316" class="sans" font-size="13.5" font-weight="500" fill="#d6e4ff" text-anchor="middle">RankMath</text></g>
<g><rect x="862" y="295" width="100" height="32" rx="16" fill="#1B4FBD" fill-opacity=".14" stroke="#3b82f6" stroke-opacity=".5"><animate attributeName="stroke-opacity" values=".35;.35;1;.35;.35" keyTimes="0;0.65;0.68;0.7;1" dur="11.1s" repeatCount="indefinite"/><animate attributeName="fill-opacity" values=".1;.1;.4;.1;.1" keyTimes="0;0.65;0.68;0.7;1" dur="11.1s" repeatCount="indefinite"/></rect><text x="912" y="316" class="sans" font-size="13.5" font-weight="500" fill="#d6e4ff" text-anchor="middle">PageSpeed</text></g>
<text x="650" y="367" class="mono" font-size="11.5" letter-spacing="2" fill="#6f7fa8">TOOLS</text>
<g><rect x="650" y="377" width="53" height="32" rx="16" fill="#1B4FBD" fill-opacity=".14" stroke="#3b82f6" stroke-opacity=".5"><animate attributeName="stroke-opacity" values=".35;.35;1;.35;.35" keyTimes="0;0.7;0.73;0.76;1" dur="11.1s" repeatCount="indefinite"/><animate attributeName="fill-opacity" values=".1;.1;.4;.1;.1" keyTimes="0;0.7;0.73;0.76;1" dur="11.1s" repeatCount="indefinite"/></rect><text x="676.5" y="398" class="sans" font-size="13.5" font-weight="500" fill="#d6e4ff" text-anchor="middle">Git</text></g>
<g><rect x="713" y="377" width="77" height="32" rx="16" fill="#1B4FBD" fill-opacity=".14" stroke="#3b82f6" stroke-opacity=".5"><animate attributeName="stroke-opacity" values=".35;.35;1;.35;.35" keyTimes="0;0.76;0.78;0.81;1" dur="11.1s" repeatCount="indefinite"/><animate attributeName="fill-opacity" values=".1;.1;.4;.1;.1" keyTimes="0;0.76;0.78;0.81;1" dur="11.1s" repeatCount="indefinite"/></rect><text x="751.5" y="398" class="sans" font-size="13.5" font-weight="500" fill="#d6e4ff" text-anchor="middle">GitHub</text></g>
<g><rect x="800" y="377" width="85" height="32" rx="16" fill="#1B4FBD" fill-opacity=".14" stroke="#3b82f6" stroke-opacity=".5"><animate attributeName="stroke-opacity" values=".35;.35;1;.35;.35" keyTimes="0;0.81;0.84;0.86;1" dur="11.1s" repeatCount="indefinite"/><animate attributeName="fill-opacity" values=".1;.1;.4;.1;.1" keyTimes="0;0.81;0.84;0.86;1" dur="11.1s" repeatCount="indefinite"/></rect><text x="842.5" y="398" class="sans" font-size="13.5" font-weight="500" fill="#d6e4ff" text-anchor="middle">Netlify</text></g>

<rect x=".75" y=".75" width="1198.5" height="478.5" rx="22" fill="none" stroke="url(#hair)" stroke-width="1.5" stroke-opacity=".75"/>
</svg>
